<!-- icon666.com - MILLIONS vector ICONS FREE --><svg id="Capa_1" enable-background="new 0 0 512 512" viewBox="0 0 512 512" xmlns="http://www.w3.org/2000/svg"><g><g><path d="m172.053 127.537c.976.083 1.306 1.312.502 1.872-2.976 2.072-4.714 4.945-5.461 8.195h177.815c-.747-3.25-2.485-6.123-5.462-8.195-.804-.56-.475-1.789.502-1.872 19.466-1.65 19.466-41.331 0-42.981-.976-.083-1.306-1.312-.502-1.872 16.033-11.162-3.807-45.527-21.49-37.223-.887.417-1.787-.484-1.37-1.37 8.304-17.683-26.061-37.523-37.223-21.49-.56.804-1.789.475-1.872-.501-1.65-19.466-41.331-19.466-42.981 0-.083.976-1.312 1.305-1.872.501-11.162-16.033-45.527 3.807-37.223 21.49.416.887-.484 1.787-1.37 1.37-17.683-8.304-37.523 26.061-21.49 37.223.804.56.475 1.789-.502 1.872-19.467 1.65-19.467 41.331-.001 42.981z" fill="#a44f3e"></path><path d="m172.053 127.537c.976.083 1.306 1.312.502 1.872-2.976 2.072-4.714 4.945-5.461 8.195h27.865c-.629-4.779-.959-9.653-.959-14.604 0-51.054 34.471-94.052 81.406-107.004-8.47-13.079-39.443-11.05-40.897 6.104-.083.976-1.312 1.305-1.872.501-11.162-16.033-45.527 3.807-37.223 21.49.416.887-.484 1.787-1.37 1.37-17.683-8.304-37.523 26.061-21.49 37.223.804.56.475 1.789-.502 1.872-19.465 1.65-19.465 41.331.001 42.981z" fill="#883f2e"></path><path d="m219.414 86.857c.025 0 .049-.004.074-.004l-12.549 38.622c-1.339 4.12.128 8.634 3.633 11.18l1.307.949h88.244l1.307-.949c3.505-2.546 4.971-7.06 3.633-11.18l-12.549-38.622c.025 0 .049.004.074.004 8.78 0 15.851-7.32 15.442-16.19-.362-7.872-6.84-14.35-14.713-14.712-8.87-.408-16.189 6.662-16.189 15.442 0 .227.024.448.034.672h-42.323c.01-.224.034-.445.034-.672 0-8.78-7.319-15.85-16.189-15.442-7.872.362-14.35 6.84-14.713 14.712-.408 8.87 6.663 16.19 15.443 16.19z" fill="#fdb441"></path><path d="m219.414 86.857c.025 0 .049-.004.074-.004l-12.549 38.622c-1.339 4.12.128 8.634 3.633 11.18l1.307.949h19.728l-1.483-.949c-3.505-2.546-4.971-7.06-3.633-11.18l17.693-53.405h-9.344c.01-.224.034-.445.034-.672 0-8.78-7.319-15.85-16.189-15.442-7.872.362-14.35 6.84-14.713 14.712-.409 8.869 6.662 16.189 15.442 16.189z" fill="#fe9738"></path></g><g><path d="m73.068 442.148c16.222 0 29.372 13.15 29.372 29.372 0 1.432-.108 2.839-.306 4.217 1.929-.398 3.927-.609 5.974-.609 7.036 0 13.493 2.477 18.551 6.603v-226.638h-64.928v189.325c3.488-1.46 7.318-2.27 11.337-2.27z" fill="#fd8087"></path><path d="m73.068 442.148c5.042 0 9.787 1.272 13.933 3.51v-190.565h-25.27v189.325c3.488-1.46 7.318-2.27 11.337-2.27z" fill="#fe646f"></path><g><g><path d="m68.946 290.134h50.5v64.928h-50.5z" fill="#ffe5c2" transform="matrix(0 1 -1 0 416.794 228.402)"></path></g></g><g><path d="m61.732 297.348h25.268v50.5h-25.268z" fill="#fed2a4"></path></g><path d="m403.892 475.128c.953 0 1.893.049 2.822.138-.156-1.227-.246-2.475-.246-3.745 0-16.222 13.15-29.372 29.372-29.372 5.246 0 10.166 1.382 14.429 3.791v-190.847h-64.928v226.637c5.058-4.125 11.515-6.602 18.551-6.602z" fill="#fd8087"></path><path d="m403.892 475.128c.953 0 1.893.049 2.822.138-.156-1.227-.246-2.475-.246-3.745 0-5.761 1.665-11.131 4.531-15.666v-200.762h-25.659v226.637c5.059-4.125 11.516-6.602 18.552-6.602z" fill="#fe646f"></path><g><path d="m392.556 290.134h50.5v64.928h-50.5z" fill="#ffe5c2" transform="matrix(0 1 -1 0 740.405 -95.208)"></path></g><g><path d="m385.342 297.348h25.658v50.5h-25.658z" fill="#fed2a4"></path></g></g><g><g><path d="m76.675 158.216c-9.353 0-17.005 7.652-17.005 17.005v46.893h30.918v-56.62c-3.083-4.389-8.173-7.278-13.913-7.278z" fill="#97d729"></path><path d="m118.93 222.114v-53.763c0-6.626 2.103-12.757 5.668-17.777v-18.637c0-9.353-7.652-17.005-17.005-17.005-9.353 0-17.005 7.652-17.005 17.005v90.178h28.342z" fill="#8bc727"></path></g><g><path d="m435.326 158.216c-5.74 0-10.83 2.889-13.913 7.278v56.62h30.918v-46.893c0-9.352-7.653-17.005-17.005-17.005z" fill="#8bc727"></path><path d="m393.071 168.351v53.763h28.342v-90.178c0-9.353-7.652-17.005-17.005-17.005-9.353 0-17.005 7.652-17.005 17.005v18.637c3.565 5.02 5.668 11.152 5.668 17.778z" fill="#97d729"></path></g></g><g fill="#fd4755"><path d="m47.818 222.114c-2.846 0-5.153 2.307-5.153 5.153v22.673c0 2.846 2.307 5.153 5.153 5.153h71.112v-32.979z"></path><path d="m464.183 222.114h-71.112v32.979h71.112c2.846 0 5.153-2.307 5.153-5.153v-22.673c0-2.846-2.307-5.153-5.153-5.153z"></path></g><g><path d="m85.329 249.94v-22.673c0-2.846 2.307-5.153 5.153-5.153h-42.664c-2.846 0-5.153 2.307-5.153 5.153v22.673c0 2.846 2.307 5.153 5.153 5.153h42.665c-2.847 0-5.154-2.307-5.154-5.153z" fill="#fb2b3a"></path></g><g><g><path d="m470.882 475.128c-2.047 0-4.045.211-5.974.609.198-1.378.306-2.784.306-4.217 0-16.222-13.15-29.372-29.372-29.372s-29.372 13.15-29.372 29.372c0 1.27.09 2.518.246 3.745-.929-.089-1.87-.138-2.822-.138-16.222 0-29.372 13.15-29.372 29.372h120.214c3.164 0 5.549-2.907 4.905-6.005-2.773-13.341-14.595-23.366-28.759-23.366z" fill="#97d729"></path></g><g><path d="m431.892 482.628c.953 0 1.893.049 2.822.138-.156-1.227-.246-2.475-.246-3.745 0-13.666 9.333-25.15 21.972-28.431-5.302-5.219-12.573-8.441-20.6-8.441-16.222 0-29.372 13.15-29.372 29.372 0 1.27.09 2.518.246 3.745-.929-.089-1.87-.138-2.822-.138-16.222 0-29.372 13.15-29.372 29.372h28.97c3.315-12.588 14.773-21.872 28.402-21.872z" fill="#8bc727"></path></g><g><path d="m108.108 475.128c-2.047 0-4.045.211-5.974.609.198-1.378.306-2.784.306-4.217 0-16.222-13.15-29.372-29.372-29.372s-29.372 13.15-29.372 29.372c0 1.27.09 2.518.246 3.745-.929-.089-1.87-.138-2.822-.138-14.164 0-25.986 10.026-28.758 23.368-.644 3.098 1.741 6.005 4.905 6.005h120.214c0-16.222-13.151-29.372-29.373-29.372z" fill="#97d729"></path></g><g><path d="m69.119 482.628c.953 0 1.893.049 2.822.138-.156-1.227-.246-2.475-.246-3.745 0-13.666 9.333-25.15 21.972-28.431-5.302-5.219-12.573-8.441-20.6-8.441-16.222 0-29.372 13.15-29.372 29.372 0 1.27.09 2.518.246 3.745-.929-.089-1.87-.138-2.822-.138-14.164 0-25.986 10.026-28.758 23.368-.644 3.098 1.741 6.005 4.905 6.005h23.451c3.316-12.589 14.773-21.873 28.402-21.873z" fill="#8bc727"></path></g></g><g><g><path d="m393.071 255.093h-274.141v-86.743c0-16.981 13.766-30.746 30.746-30.746h212.649c16.981 0 30.746 13.766 30.746 30.746z" fill="#ffe5c2"></path></g><g><path d="m191.747 137.604h-42.071c-16.981 0-30.746 13.766-30.746 30.746v86.743h42.07v-86.743c0-16.98 13.766-30.746 30.747-30.746z" fill="#fed2a4"></path></g></g><g><path d="m241.057 99.969c-4.143 0-7.5 3.357-7.5 7.5v5.153c0 4.143 3.357 7.5 7.5 7.5s7.5-3.357 7.5-7.5v-5.153c0-4.143-3.358-7.5-7.5-7.5z"></path><path d="m270.944 99.969c-4.143 0-7.5 3.357-7.5 7.5v5.153c0 4.143 3.357 7.5 7.5 7.5s7.5-3.357 7.5-7.5v-5.153c0-4.143-3.358-7.5-7.5-7.5z"></path><path d="m506.983 496.97c-3.42-16.468-17.772-28.562-34.47-29.306-1.1-10.535-6.657-19.76-14.743-25.762v-43.902c0-4.143-3.357-7.5-7.5-7.5s-7.5 3.357-7.5 7.5v37.302c-2.245-.428-4.561-.654-6.929-.654-19.121 0-34.89 14.629-36.699 33.284-2.165.28-4.269.754-6.301 1.395v-113.979h49.929v7.652c0 4.143 3.357 7.5 7.5 7.5s7.5-3.357 7.5-7.5v-100.406h6.413c6.977 0 12.652-5.676 12.652-12.653v-22.674c0-6.977-5.676-12.652-12.652-12.652h-4.353v-39.393c0-13.512-10.993-24.505-24.505-24.505-2.221 0-4.366.314-6.413.871v-19.652c0-13.512-10.993-24.505-24.505-24.505s-24.505 10.993-24.505 24.505v2.465c-5.267-2.739-11.243-4.296-17.578-4.296h-10.004c6.027-5.099 9.727-13.721 9.727-24.058 0-11.268-4.388-20.512-11.404-25.359 3.653-7.708 2.83-17.906-2.804-27.664s-14.055-15.569-22.556-16.26c-.69-8.502-6.502-16.922-16.26-22.556s-19.953-6.458-27.663-2.803c-4.848-7.017-14.092-11.405-25.36-11.405s-20.511 4.387-25.359 11.404c-7.705-3.651-17.906-2.831-27.664 2.804-9.758 5.634-15.569 14.055-16.26 22.556-8.501.691-16.923 6.503-22.556 16.26-5.634 9.757-6.456 19.956-2.803 27.664-7.018 4.848-11.405 14.092-11.405 25.359 0 10.336 3.699 18.959 9.726 24.058h-10.004c-6.336 0-12.311 1.558-17.578 4.296v-2.465c0-13.512-10.993-24.505-24.505-24.505s-24.505 10.993-24.505 24.505v19.652c-2.047-.557-4.192-.871-6.413-.871-13.512 0-24.505 10.993-24.505 24.505v39.393h-4.353c-6.977 0-12.652 5.676-12.652 12.652v22.674c0 6.978 5.676 12.653 12.652 12.653h6.413v177.25c-9.819 5.862-16.705 16.149-17.862 28.094-15.341 2.008-28.146 13.6-31.352 29.032-.766 3.69.16 7.485 2.542 10.413 2.388 2.935 5.926 4.617 9.707 4.617h477.469c3.781 0 7.319-1.683 9.707-4.617 2.383-2.928 3.309-6.723 2.543-10.413zm-78.071-328.743c1.693-1.553 3.94-2.51 6.413-2.51 5.241 0 9.505 4.264 9.505 9.505v39.393h-15.918zm32.923 61.387v17.979h-61.265v-17.979zm-66.932-97.678c0-5.241 4.264-9.505 9.505-9.505s9.505 4.264 9.505 9.505v82.679h-13.342v-46.264c0-7.331-2.077-14.184-5.668-20.009zm-2.062 130.658h.229 49.699v27.255h-49.929v-27.255zm0 42.255h49.929v35.499h-49.929zm-220.152-212.82c3.577-.304 6.603-2.833 7.527-6.292.926-3.46-.433-7.161-3.377-9.208-4.673-3.253-2.373-11.354.312-16.006s8.556-10.697 13.708-8.271c3.247 1.523 7.132.847 9.662-1.684 2.531-2.53 3.207-6.413 1.683-9.664-2.421-5.154 3.621-11.021 8.272-13.706 4.652-2.687 12.753-4.985 16.004-.315 2.048 2.945 5.744 4.308 9.21 3.38 3.459-.925 5.988-3.95 6.293-7.53.481-5.673 8.646-7.733 14.017-7.733s13.536 2.06 14.018 7.735c.304 3.577 2.833 6.603 6.292 7.527 3.463.929 7.16-.433 9.208-3.377 3.251-4.672 11.354-2.373 16.006.312 4.651 2.686 10.693 8.552 8.271 13.708-1.523 3.249-.848 7.132 1.684 9.662 2.531 2.531 6.414 3.206 9.664 1.683 5.151-2.426 11.021 3.622 13.706 8.272s4.984 12.749.315 16.004c-2.947 2.049-4.306 5.75-3.38 9.21.925 3.459 3.95 5.988 7.53 6.293 5.673.48 7.732 8.646 7.732 14.017s-2.06 13.536-7.735 14.018c-3.577.304-6.603 2.833-7.527 6.292-.334 1.248-.361 2.526-.133 3.748h-18.681c.201-2.294-.03-4.651-.776-6.947l-10.039-30.899c2.62-1.202 5.02-2.894 7.037-5.006 4.373-4.579 6.62-10.592 6.328-16.93-.539-11.718-10.142-21.32-21.86-21.859-6.34-.29-12.352 1.958-16.931 6.331-2.829 2.702-4.901 6.088-6.055 9.775h-29.35c-1.153-3.688-3.226-7.073-6.055-9.775-4.58-4.374-10.599-6.624-16.932-6.331-11.718.539-21.32 10.142-21.859 21.858-.292 6.339 1.955 12.352 6.328 16.931 2.018 2.112 4.417 3.804 7.037 5.006l-10.039 30.898c-.746 2.297-.977 4.654-.776 6.948h-18.681c.228-1.222.201-2.5-.133-3.748-.925-3.459-3.95-5.988-7.53-6.293-5.673-.48-7.732-8.646-7.732-14.017s2.061-13.535 7.737-14.017zm112.691-2.859 12.549 38.623c.263.808.091 1.668-.415 2.312h-25.806c.024-.245.038-.494.038-.745 0-4.143-3.357-7.5-7.5-7.5h-16.49c-4.143 0-7.5 3.357-7.5 7.5 0 .251.013.5.038.745h-25.806c-.507-.643-.678-1.504-.415-2.312l12.547-38.623c.759-2.333.327-4.891-1.154-6.847-1.421-1.875-3.636-2.971-5.978-2.971-.069 0-.139.001-.208.003-2.145-.034-4.138-.906-5.625-2.463-1.515-1.587-2.293-3.675-2.191-5.881.184-3.987 3.577-7.381 7.563-7.564 2.209-.095 4.295.678 5.883 2.193 1.564 1.495 2.437 3.501 2.462 5.658 0 0 0 .002-.001.007-.01.146-.019.291-.025.438-.089 2.044.661 4.035 2.076 5.513 1.414 1.478 3.371 2.313 5.417 2.313h42.322c2.046 0 4.003-.836 5.417-2.313 1.415-1.478 2.165-3.469 2.076-5.513-.006-.131-.014-.262-.026-.451.027-2.155.899-4.158 2.462-5.651 1.587-1.515 3.673-2.294 5.882-2.193 3.987.184 7.381 3.577 7.564 7.565.102 2.205-.677 4.293-2.191 5.88-1.487 1.557-3.48 2.429-5.625 2.463-2.417-.084-4.723 1.037-6.186 2.968-1.481 1.955-1.913 4.513-1.154 6.846zm-166.221 173.424v27.255h-49.928v-27.255h49.699zm0 42.255v35.499h-49.927v-35.499zm-21.071-172.913c0-5.241 4.264-9.505 9.505-9.505s9.505 4.264 9.505 9.505v16.406c-3.591 5.825-5.668 12.678-5.668 20.009v46.264h-13.342zm-30.918 43.286c0-5.241 4.264-9.505 9.505-9.505 2.473 0 4.721.957 6.413 2.51v46.388h-15.918zm-17.005 72.372v-17.979h61.265v17.979zm-29.6 249.406c3.102-8.486 11.302-14.372 20.555-14.372.68 0 1.389.035 2.108.104 2.276.211 4.513-.608 6.1-2.246 1.586-1.637 2.342-3.906 2.055-6.167-.126-.983-.187-1.898-.187-2.798 0-12.061 9.812-21.872 21.872-21.872s21.872 9.812 21.872 21.872c0 1.032-.077 2.092-.229 3.148-.348 2.419.505 4.855 2.284 6.53s4.265 2.378 6.656 1.883c1.46-.301 2.96-.454 4.458-.454 9.427 0 17.479 5.995 20.547 14.372zm134.15 0h-10.507c-1.486-7.164-5.059-13.571-10.049-18.561v-26.439c0-4.143-3.357-7.5-7.5-7.5s-7.5 3.357-7.5 7.5v17.323c-2.995-.943-6.152-1.517-9.42-1.66-1.934-18.526-17.643-33.015-36.672-33.015-1.296 0-2.575.073-3.837.204v-79.505h49.929v61.653c0 4.143 3.357 7.5 7.5 7.5s7.5-3.357 7.5-7.5v-20.428h20.556zm32.98 0h-17.979v-100.428h17.979zm15 0v-100.428h15.263v99.683c0 .251.013.5.038.745zm45.805 0h-15.58c.024-.245.038-.494.038-.745v-99.683h15.542zm0-115.428h-15.543v-15.174c0-4.143-3.357-7.5-7.5-7.5s-7.5 3.357-7.5 7.5v15.174h-14.856c2.905-23.884 21.656-42.939 45.399-46.299zm15 115.428v-100.428h15.543v99.683c0 .251.013.5.038.745zm23.043-138.102c-4.143 0-7.5 3.357-7.5 7.5v15.174h-15.543v-46.299c23.743 3.359 42.495 22.415 45.399 46.299h-14.856v-15.174c0-4.142-3.357-7.5-7.5-7.5zm22.763 138.102h-15.3c.024-.245.038-.494.038-.745v-99.683h15.263v100.428zm32.979 0h-17.979v-100.428h17.979zm35.556-18.561c-4.988 4.99-8.559 11.398-10.045 18.561h-10.51v-100.428h20.556v81.867zm0-96.867h-53.85c-3.27-34.64-32.509-61.837-67.991-61.837s-64.72 27.197-67.991 61.837h-53.85v-118.978h170.841c4.143 0 7.5-3.357 7.5-7.5s-3.357-7.5-7.5-7.5h-178.57v-79.243c0-12.818 10.428-23.246 23.246-23.246h212.648c12.818 0 23.246 10.428 23.246 23.246v79.243h-45.57c-4.143 0-7.5 3.357-7.5 7.5s3.357 7.5 7.5 7.5h37.841zm5.504 115.428c3.067-8.377 11.12-14.372 20.547-14.372.681 0 1.39.035 2.107.104 2.268.212 4.513-.608 6.101-2.246 1.586-1.637 2.342-3.905 2.055-6.167-.125-.979-.186-1.894-.186-2.798 0-12.061 9.812-21.872 21.872-21.872s21.872 9.812 21.872 21.872c0 1.032-.077 2.092-.229 3.148-.348 2.419.505 4.855 2.284 6.53 1.78 1.675 4.265 2.378 6.657 1.883 1.459-.301 2.958-.454 4.456-.454 9.253 0 17.453 5.886 20.555 14.372z"></path><path d="m261.024 163.734h-10.047c-13.368 0-24.243 10.875-24.243 24.243v16.743c0 13.368 10.875 24.243 24.243 24.243h10.047c13.368 0 24.243-10.875 24.243-24.243v-16.743c0-13.368-10.875-24.243-24.243-24.243zm9.243 40.987c0 5.097-4.146 9.243-9.243 9.243h-10.047c-5.097 0-9.243-4.146-9.243-9.243v-16.743c0-5.097 4.146-9.243 9.243-9.243h10.047c5.097 0 9.243 4.146 9.243 9.243z"></path><path d="m219.128 168.119c-1.22-2.671-3.886-4.385-6.822-4.385h-43.532c-4.143 0-7.5 3.357-7.5 7.5s3.357 7.5 7.5 7.5h27.107l-32.775 37.817c-1.923 2.219-2.374 5.356-1.154 8.027s3.886 4.385 6.822 4.385h43.532c4.143 0 7.5-3.357 7.5-7.5s-3.357-7.5-7.5-7.5h-27.107l32.775-37.817c1.923-2.218 2.374-5.356 1.154-8.027z"></path><path d="m350.727 204.721v-16.743c0-13.368-10.875-24.243-24.243-24.243h-10.046c-13.368 0-24.243 10.875-24.243 24.243v16.743c0 13.368 10.875 24.243 24.243 24.243h10.046c13.368 0 24.243-10.875 24.243-24.243zm-15 0c0 5.097-4.146 9.243-9.243 9.243h-10.046c-5.097 0-9.243-4.146-9.243-9.243v-16.743c0-5.097 4.146-9.243 9.243-9.243h10.046c5.097 0 9.243 4.146 9.243 9.243z"></path></g></g></svg>